<?xml version="1.0" encoding="UTF-8"?>
<!DOCTYPE svg PUBLIC "-//W3C//DTD SVG 1.1//EN" "http://www.w3.org/Graphics/SVG/1.1/DTD/svg11.dtd">
<!-- Creator: CorelDRAW X7 -->
<svg xmlns="http://www.w3.org/2000/svg" xml:space="preserve" width="40px" height="60px" version="1.1" style="shape-rendering:geometricPrecision; text-rendering:geometricPrecision; image-rendering:optimizeQuality; fill-rule:evenodd; clip-rule:evenodd"
viewBox="0 0 400000 600008"
 xmlns:xlink="http://www.w3.org/1999/xlink">
 <defs>
  <style type="text/css">
   <![CDATA[
    .fil0 {fill:white}
   ]]>
  </style>
 </defs>
 <g id="Слой_x0020_1">
  <metadata id="CorelCorpID_0Corel-Layer"/>
  <g id="_2293240933360">
   <circle class="fil0" cx="-308955" cy="-63935" r="98606"/>
   <path class="fil0" d="M-322897 -259525c15402,19129 1112,31156 -5280,42585 -13670,24461 16014,55019 37116,26465 12351,-16714 4603,-51550 -31836,-69050zm28502 391088c-15402,-19132 -1111,-31159 5280,-42588 13671,-24461 -16014,-55019 -37111,-26465 -12356,16710 -4604,51554 31831,69053z"/>
   <path class="fil0" d="M-504192 -49732c19129,-15401 31155,-1111 42585,5280 24461,13671 55019,-16014 26465,-37115 -16714,-12352 -51550,-4604 -69050,31835zm391088 -28501c-19132,15401 -31159,1111 -42588,-5280 -24461,-13671 -55019,16014 -26465,37111 16710,12356 51554,4604 69053,-31831z"/>
   <path class="fil0" d="M-470867 46133c8863,-22904 26423,-16543 39515,-16720 28022,-393 39644,-41379 4366,-45374 -20652,-2343 -46946,21789 -43881,62094zm324439 -220232c-8871,22908 -26431,16544 -39523,16725 -28022,393 -39641,41379 -4362,45374 20648,2339 46950,-21793 43885,-62099z"/>
   <path class="fil0" d="M-394077 112491c-3776,-24268 14611,-27537 25863,-34242 24069,-14348 13641,-55655 -18909,-41474 -19057,8296 -29764,42343 -6954,75716zm170855 -352944c3776,24269 -14615,27538 -25863,34243 -24072,14347 -13641,55654 18909,41477 19053,-8300 29764,-42350 6954,-75720z"/>
   <path class="fil0" d="M-198537 98235c-22905,-8863 -16540,-26423 -16721,-39516 -393,-28021 -41379,-39643 -45374,-4365 -2340,20652 21789,46946 62095,43881zm-220229 -324439c22905,8867 16544,26431 16721,39523 393,28022 41379,39640 45374,4362 2343,-20648 -21789,-46950 -62095,-43885z"/>
   <path class="fil0" d="M-132183 21445c-24265,3776 -27534,-14615 -34239,-25863 -14348,-24069 -55654,-13641 -41474,18909 8297,19053 42343,29764 75713,6954zm-352944 -170859c24272,-3772 27541,14619 34246,25867 14348,24072 55655,13641 41474,-18909 -8297,-19053 -42347,-29764 -75720,-6958z"/>
  </g>
  <path class="fil0" d="M199955 491734c-105855,0 -191670,-85815 -191670,-191670 0,-105854 85815,-191670 191670,-191670 105854,0 191669,85816 191669,191670 0,105855 -85815,191670 -191669,191670zm0 -15194c-97464,0 -176476,-79012 -176476,-176476 0,-97464 79012,-176476 176476,-176476 97464,0 176476,79012 176476,176476 0,97464 -79012,176476 -176476,176476z"/>
  <circle class="fil0" cx="199955" cy="300064" r="148246"/>
 </g>
</svg>
