<?xml version="1.0" encoding="UTF-8"?>
<!DOCTYPE svg PUBLIC "-//W3C//DTD SVG 1.1//EN" "http://www.w3.org/Graphics/SVG/1.1/DTD/svg11.dtd">
<!-- Creator: CorelDRAW X7 -->
<svg xmlns="http://www.w3.org/2000/svg" xml:space="preserve" width="40px" height="60px" version="1.1" style="shape-rendering:geometricPrecision; text-rendering:geometricPrecision; image-rendering:optimizeQuality; fill-rule:evenodd; clip-rule:evenodd"
viewBox="0 0 400000 600008"
 xmlns:xlink="http://www.w3.org/1999/xlink">
 <defs>
  <style type="text/css">
   <![CDATA[
    .fil0 {fill:white}
    .fil1 {fill:white;fill-rule:nonzero}
   ]]>
  </style>
 </defs>
 <g id="Слой_x0020_1">
  <metadata id="CorelCorpID_0Corel-Layer"/>
  <path class="fil0" d="M-293072 134772c-49282,12235 -79322,62095 -67091,111380 12234,49282 62094,79322 111380,67092 49282,-12235 79322,-62095 67091,-111381 -12234,-49282 -62094,-79322 -111380,-67091zm105760 -14612l1512 14446 59041 4150 20731 1459 -14053 15258 -24064 26128 10488 2355 -8172 12106 -8145 12068 42558 41129 14911 14408 -20572 2657 -35203 4543 6538 8565 -14075 4032 -13977 4003 6169 58905 2154 20606 -17465 -11191 -29901 -19155 -495 10719 -13345 -5946 -13271 -5915 -33135 49086 -11611 17200 -6198 -19820 -10587 -33880 -7291 7915 -6410 -13153 -6365 -13066 -56932 16301 -19937 5707 7986 -19143 13686 -32807 -10666 1376 3538 -14170 3526 -14120 -54082 -24103 -18928 -8440 18422 -9528 31525 -16309 -9055 -5801 11841 -8599 11751 -8530 -25940 -53236 -9082 -18641 20255 4543 34647 7775 -3209 -10265 14552 1020 14536 1024 14351 -57457 5027 -20126 12590 16494 21543 28226 4135 -9910 10496 10144 10473 10122 47933 -34798 16770 -12174 -953 20689 -1640 35505 9547 -4936 1527 14555z"/>
  <path class="fil0" d="M727882 281102c642,-23199 11029,-26774 16762,-52392 1656,-7412 1754,-18233 957,-26654 -303,-3152 -609,-6036 -817,-8848 7627,601 8935,5949 15708,8447 3836,1410 7601,2355 12450,2177 -1455,-1753 -2566,-4384 -2721,-6534 -201,-2824 117,-5314 -1338,-9869 2910,-159 6062,310 10072,2011 12983,5503 14491,17023 49585,20837 -14423,-18184 -8754,-27595 -20837,-50907 -3496,-6736 -10375,-15088 -16400,-21026 -2252,-2223 -4346,-4237 -6308,-6259 6225,-4434 10666,-1183 17462,-3629 3847,-1375 7332,-3072 10938,-6334 -2241,-408 -4781,-1709 -6278,-3262 -1973,-2030 -3341,-4139 -7382,-6694 2128,-1991 4846,-3658 9011,-4936 13482,-4127 22035,3731 51383,-15908 -22745,-4649 -24454,-15515 -48684,-25599 -7004,-2918 -17655,-4895 -26076,-5571 -3156,-250 -6055,-446 -8859,-733 1916,-7401 7412,-7760 11044,-14000 2064,-3541 3640,-7079 4305,-11887 -1988,1123 -4759,1765 -6913,1542 -2812,-287 -5212,-1031 -9944,-389 344,-2891 1357,-5915 3730,-9574 7669,-11826 19272,-11304 29126,-45215 -20406,11052 -28691,3829 -53746,11683 -7245,2264 -16668,7589 -23558,12495 -2578,1833 -4925,3542 -7253,5125 -3292,-6893 688,-10699 -548,-17828 -688,-4029 -1754,-7744 -4339,-11864 -797,2143 -2517,4407 -4305,5617 -2336,1591 -4645,2570 -7861,6104 -1592,-2442 -2767,-5405 -3300,-9733 -1731,-13992 7491,-21048 -6746,-53360 -8531,21582 -19530,21381 -33676,43507 -4082,6380 -7877,16520 -10009,24711 -797,3057 -1493,5877 -2260,8587 -6958,-3171 -6357,-8640 -11875,-13316 -3119,-2630 -6324,-4803 -10950,-6300 764,2150 907,5004 321,7079 -774,2725 -1923,4959 -2116,9736 -2789,-846 -5590,-2370 -8780,-5344 -10307,-9608 -7790,-20946 -39470,-36537 7336,22012 -1210,28925 2177,54966 975,7525 4581,17723 8209,25365 1361,2857 2642,5461 3795,8035 -7363,2041 -10424,-2528 -17651,-2562 -4086,-23 -7945,389 -12438,2207 1961,1164 3904,3250 4781,5216 1156,2585 1719,5034 4645,8814 -2680,1149 -5806,1784 -10160,1561 -14082,-734 -19430,-11040 -53726,-2631 19786,12159 17677,22946 37005,40721 5579,5125 14900,10628 22591,14147 2880,1316 5533,2495 8073,3719 -4331,6297 -9611,4755 -15175,9385 -3141,2608 -5824,5393 -8111,9687 2253,-378 5084,-23 7023,922 2547,1229 4550,2744 9222,3761 -1312,2600 -3300,5095 -6781,7722 -11252,8489 -21978,4040 -42841,32523 22957,-3398 28286,6213 54516,7412 7578,344 18252,-1444 26408,-3697 3047,-839 5828,-1644 8561,-2332 729,7612 -4301,9827 -5590,16936 -718,4026 -986,7888 23,12636 1478,-1731 3874,-3285 5971,-3806 2741,-696 5250,-817 9480,-3039 665,2838 744,6024 -239,10276 -3163,13735 -14233,17220 -11905,52450 15402,-17368 25663,-13418 46515,-29371 6025,-4608 13058,-12828 17862,-19794 1796,-2608 3417,-5019 5069,-7302 5442,5363 3012,10299 6603,16577 2033,3538 4308,6678 8133,9664 23,-2286 854,-5004 2121,-6758 1655,-2294 3503,-4002 5318,-8420 2332,1746 4441,4138 6421,8020 6403,12552 155,22348 24590,47834zm-44308 -83740c-51217,0 -92743,-41526 -92743,-92743 0,-51217 41526,-92744 92743,-92744 51217,0 92743,41527 92743,92744 0,51217 -41526,92743 -92743,92743z"/>
  <path class="fil1" d="M-239841 566298c813,-11056 3984,-17492 7609,-24840 3080,-6259 6512,-13213 9018,-24416 756,-3394 1183,-7563 1338,-11879 174,-4883 7,-9948 -408,-14328l-238 -2450c-174,-1784 -348,-3488 -484,-5166 -3617,-178 -16294,-870 -32025,-1905 -4921,8889 -8863,17715 -11153,26684 -544,2135 -1104,3911 -1667,5412 2136,1784 4105,4188 5968,7846 2041,4003 2842,7688 3693,11641 1757,8138 3783,17526 18349,33401zm10186 -23570c-3832,7771 -7139,14480 -7483,27054l-98 3436 -2374 -2479c-17231,-17972 -19469,-28321 -21392,-37237l0 -4c-809,-3757 -1569,-7256 -3444,-10934 -1440,-2823 -2967,-4815 -4607,-6338 -1198,2453 -2400,3983 -3541,5431 -390,499 -783,994 -1146,1497 -532,737 -986,1704 -1311,2736 -333,1062 -529,2185 -537,3190l-30 2907 -2290 -1788c-2004,-1565 -3606,-3175 -4971,-4849 -1341,-1652 -2468,-3394 -3522,-5231l-4 0c-1644,-2880 -2113,-5447 -2551,-7885 -439,-2449 -862,-4777 -2676,-7113 -862,1225 -1727,2491 -2627,3803l-1383 2014 -4 8c-2570,3726 -5775,7816 -9120,11520 -3001,3326 -6138,6372 -9052,8598 -9400,7193 -16664,10394 -23199,13270 -7926,3485 -14771,6505 -23116,15912l-2279 2574 -231 -3435c-1636,-24828 3296,-34194 7552,-42264 1791,-3397 3462,-6568 4388,-10597 714,-3096 824,-5602 544,-7824 -2498,1111 -4399,1512 -6206,1890 -589,121 -1187,253 -1829,412l-4 0c-884,219 -1859,669 -2767,1247 -933,593 -1802,1330 -2456,2098l-1890 2214 -609 -2849c-529,-2476 -721,-4744 -687,-6902l0 -8c30,-2158 287,-4206 653,-6270l4 -7c590,-3266 1882,-5522 3111,-7665 1236,-2162 2407,-4211 2517,-7174 -1432,378 -2888,786 -4403,1206l-2400 665c-4377,1206 -9472,2290 -14408,2978 -4430,620 -8784,938 -12442,771 -11819,-540 -19442,-2759 -26299,-4754 -8318,-2423 -15492,-4513 -27950,-2669l-3401 503 2033 -2778c14707,-20085 24511,-24084 32958,-27527 3564,-1451 6886,-2812 10178,-5295 2533,-1909 4226,-3757 5439,-5639 -2627,-752 -4342,-1671 -5971,-2540l-4 0c-594,-317 -1179,-631 -1659,-862l-4 0c-820,-397 -1856,-684 -2929,-820l-12 0c-1100,-147 -2233,-140 -3220,23l-2872 476 1364 -2570c1191,-2238 2498,-4097 3919,-5741 1410,-1629 2926,-3035 4543,-4377l0 4c2559,-2128 4997,-3031 7322,-3882 2332,-862 4546,-1678 6531,-3874l-4211 -1928 -2211 -1005 -7 -7c-4101,-1875 -8678,-4324 -12919,-6978l-4 4c-3798,-2373 -7344,-4936 -10042,-7419 -8708,-8005 -13119,-14604 -17088,-20546 -4811,-7200 -8972,-13417 -19699,-20009l-2925 -1799 3341 -820c24174,-5927 34251,-2687 42932,98 3663,1176 7076,2279 11203,2491 3167,162 5654,-170 7797,-832 -1542,-2279 -2268,-4089 -2955,-5809 -231,-582 -465,-1160 -711,-1712 -367,-828 -979,-1705 -1708,-2498 -756,-824 -1629,-1561 -2491,-2068l-2498 -1478 2687 -1092c2336,-949 4539,-1534 6686,-1878 2124,-337 4191,-443 6297,-431 3311,15 5760,899 8092,1735 2339,839 4562,1640 7502,1228l-1999 -4218 -1036 -2162 -7 -7c-1939,-4086 -3882,-8913 -5420,-13671 -1376,-4256 -2446,-8493 -2914,-12121l0 -4c-1524,-11736 -666,-19627 109,-26722 941,-8613 1750,-16052 -2222,-27976l-1081 -3254 3077 1515c22333,10991 27976,19956 32836,27678 2045,3247 3954,6282 6978,9098 2320,2165 4433,3511 6500,4380 284,-2736 892,-4585 1474,-6342 201,-616 409,-1232 560,-1773 245,-877 340,-1950 295,-3038 -50,-1100 -254,-2219 -590,-3168l-979 -2744 2774 896c2423,782 4483,1750 6339,2861 1825,1093 3473,2347 5095,3712l7 0c2532,2147 3844,4395 5087,6531 1251,2154 2442,4195 4952,5767 385,-1428 763,-2895 1152,-4418l0 -4 624 -2411c1141,-4399 2763,-9347 4630,-13966 1674,-4138 3583,-8073 5560,-11161 6380,-9974 12113,-15462 17269,-20402 6251,-5987 11656,-11161 16278,-22859l1263 -3197 1391 3148c10031,22772 8598,33257 7362,42290 -521,3810 -1009,7366 -503,11475 386,3144 1142,5533 2166,7525 1962,-1901 3610,-2926 5174,-3897l8 0c514,-314 1028,-639 1576,-1013l4 -7c763,-518 1527,-1274 2181,-2124l-4 0c673,-881 1240,-1864 1587,-2797l1013 -2725 1546 2460c1353,2158 2321,4222 3024,6259 707,2037 1168,4052 1519,6127 567,3277 125,5839 -295,8277 -423,2449 -820,4777 91,7586 1225,-855 2461,-1739 3749,-2661l8 0 1999 -1429c3693,-2627 8107,-5378 12511,-7718l7 0c3961,-2097 7949,-3889 11445,-4978 11297,-3537 19219,-4063 26336,-4527 8640,-567 16097,-1059 27156,-7049l3016 -1633 -956 3299c-6943,23899 -14789,31012 -21551,37139 -2846,2577 -5499,4981 -7752,8458 -1724,2661 -2680,4974 -3179,7159 2737,-193 4657,83 6486,347 662,95 1331,193 1852,246 907,91 1977,0 3028,-234 1084,-238 2154,-631 3027,-1126l2532 -1433 -397 2876c-347,2518 -937,4713 -1708,6732 -760,2003 -1712,3847 -2778,5680 -1659,2850 -3647,4532 -5548,6135l3 3c-1901,1607 -3707,3134 -4819,5874l4615 374 2427 189 7 0c4494,359 9646,1096 14552,2143 4380,934 8579,2128 11962,3538 10927,4547 17322,9237 23074,13455 6989,5121 13021,9547 25346,12064l3364 692 -2854 1909c-20689,13844 -31268,14253 -40388,14597 -3844,143 -7427,283 -11369,1489 -3031,929 -5254,2090 -7038,3447 2211,1606 3512,3054 4748,4433 438,488 869,964 1266,1376l7 7c628,651 1505,1270 2461,1765l7 8c975,510 2045,892 3028,1070l2865 517 -2158 1958c-1898,1720 -3761,3024 -5640,4067 -1893,1055 -3802,1860 -5775,2563l-4 -8c-3121,1126 -5726,1138 -8197,1145 -2480,8 -4842,19 -7461,1410 1050,1058 2139,2120 3269,3228l1761 1731c3224,3175 6694,7045 9770,10983 2760,3542 5216,7159 6902,10409 5443,10496 7332,18214 9029,25153 2056,8402 3840,15659 11657,25516l2135 2695 -3413 -370c-24745,-2688 -33105,-9173 -40309,-14767 -3046,-2362 -5885,-4570 -9680,-6176 -2921,-1236 -5370,-1780 -7608,-1890 669,2669 726,4619 783,6471 15,578 37,1172 83,1852 64,915 340,1954 756,2948 427,1024 997,2007 1632,2770l1867 2245 -2921 110c-2540,95 -4808,-110 -6921,-514 -2109,-408 -4085,-1020 -6073,-1750 -3115,-1149 -5110,-2812 -7008,-4396 -1908,-1591 -3726,-3110 -6629,-3726 125,1489 276,3005 431,4581l0 3 238 2453c427,4517 601,9714 423,14699 -158,4475 -608,8822 -1406,12401 -2585,11550 -6092,18667 -9245,25066zm6377 -63769c-329,-7593 385,-15122 4361,-26321 363,-1024 737,-2120 1123,-3281 -5632,4082 -11494,8289 -17258,12367 -4906,3466 -9747,6845 -14324,9971 -1240,2003 -2438,3995 -3595,5987 9529,1360 19412,1893 29693,1277zm7075 -25361c-3787,10670 -4502,17896 -4207,25157 1803,-144 3617,-321 5443,-537 3624,-427 6531,-1232 9177,-1958 2173,-597 4184,-1152 6259,-1447 -465,-1240 -1059,-2627 -1815,-4199 -3957,-8236 -6621,-17299 -8579,-26986l-3920 2861c-824,2630 -1617,5019 -2358,7109zm745 -11626c1062,-3503 2169,-7344 3310,-11395 -650,-4524 -1213,-9158 -1742,-13871 -6750,11781 -14185,22809 -21347,33430l-1217 1807c7083,-2892 14113,-6161 20996,-9971zm5264 -18455c923,-3383 1852,-6864 2778,-10391 1626,-6179 3240,-12487 4785,-18625 -2691,6179 -5673,12140 -8844,17907 405,3757 824,7465 1281,11109zm5560 -9657c-1538,5835 -3080,11561 -4581,16921 337,2324 703,4622 1093,6886 8179,-5087 16089,-11032 23573,-18115 -5121,-5605 -9415,-11834 -13576,-22980 -378,-1017 -802,-2098 -1251,-3235 -1690,6739 -3470,13712 -5258,20523zm-6455 23490l-749 2559 1081 -635 -332 -1924zm22254 -87732c-805,3534 -3685,15890 -7438,31204 7899,6392 15900,11804 24340,15618 2011,907 3663,1761 5042,2577 2124,-1791 4830,-3311 8757,-4516 4313,-1319 8077,-1467 12118,-1618 8319,-317 17904,-680 36072,-12268 -10757,-2718 -16539,-6959 -23142,-11800 -5628,-4128 -11883,-8716 -22478,-13123 -3208,-1338 -7234,-2479 -11455,-3379 -4751,-1013 -9774,-1731 -14181,-2082l-2419 -189c-1799,-136 -3530,-269 -5216,-424zm-8198 34285l-1164 4709c1054,2544 1984,4880 2763,6962 3957,10606 8058,16600 12952,21975 1285,-1270 2559,-2567 3818,-3905 2475,-2634 4206,-5140 5775,-7415 1277,-1852 2460,-3564 3859,-5122 -1153,-650 -2495,-1330 -4082,-2044 -8323,-3761 -16192,-9000 -23921,-15160zm7366 -40272c1267,-2082 2903,-3462 4604,-4902l7 0c1701,-1432 3485,-2940 4910,-5389 990,-1705 1875,-3413 2574,-5258 427,-1115 794,-2283 1085,-3549 -405,125 -817,235 -1229,325 -1334,299 -2721,412 -3942,288 -759,-80 -1360,-171 -1965,-254 -1792,-257 -3685,-529 -6497,-264 -136,2139 64,4248 279,6546l0 7c265,2858 564,6010 348,9816l-174 2634zm-3367 -18588c-1300,242 -2767,586 -4441,1059 -8799,2472 -18188,3511 -28064,3760l2132 4358c2438,1270 4653,2461 6580,3553 9846,5575 16842,7533 24050,8504 170,-1795 310,-3606 412,-5439 204,-3647 -80,-6663 -333,-9392 -212,-2237 -404,-4312 -336,-6403zm-5220 -1708c2124,-597 3938,-1005 5518,-1270 477,-2740 1573,-5647 3810,-9093 2446,-3769 5239,-6305 8236,-9019 6164,-5586 13277,-12026 19741,-32591 -9975,4827 -17137,5299 -25305,5832 -6965,454 -14706,968 -25663,4399 -3330,1036 -7143,2756 -10953,4770l0 4c-4313,2290 -8618,4974 -12201,7521l-1995 1425 3 4c-1455,1047 -2857,2045 -4240,3001 1648,3213 7381,14536 14358,28695 10164,-182 19775,-1176 28691,-3678zm-31737 6588l-1931 -4 2370 1176 -439 -1172zm-8772 -136c-4581,-148 -9241,-397 -13985,-696 10432,8697 19998,17938 29213,26832l1568 1511c-1618,-7483 -3625,-14974 -6183,-22420 -3258,-1652 -6830,-3405 -10613,-5227zm-18910 -1017l-6349 -438c-13970,-979 -28532,-1992 -43428,-1724l-5147 3746c-11324,8228 -23131,16808 -34364,26585l-1535 6169c-3386,13587 -6913,27749 -9233,42467l2785 5703c6138,12586 12545,25709 20229,38480l5809 2582c12790,5692 26124,11626 40214,16467l6123 -1761c13452,-3855 27478,-7884 41379,-13229l3564 -5291c7824,-11603 15984,-23702 23196,-36734l-669 -6327c-1467,-13920 -2990,-28437 -5844,-43057l-4580 -4414c-10069,-9725 -20569,-19858 -32150,-29224zm-6160 -3311l2173 155c-6051,-4690 -12408,-9150 -19155,-13209 -3556,827 -7423,1780 -11490,2819 -3598,2831 -7332,5639 -11153,8459 13580,-46 26846,884 39625,1776zm7264 503c3776,253 7503,480 11176,665 -3171,-1493 -6433,-3012 -9740,-4535 -5820,-2680 -11769,-5375 -17567,-7972 5631,3727 10987,7711 16131,11842zm18486 964c2347,72 4675,113 6970,117 -3591,-8931 -8074,-17749 -13747,-26348 -6406,4071 -13285,7208 -24983,9370 -1066,197 -2199,420 -3398,665 6343,2831 12904,5802 19310,8754 5477,2521 10836,5034 15848,7442zm-74443 -174c-7653,295 -15386,964 -23161,2188 -2192,2922 -4547,6134 -6996,9551 -937,4487 -1992,9033 -3110,13652 10375,-8765 21146,-16585 31510,-24117l1757 -1274zm-27262 2891l-1228 227 -344 1909 1572 -2136zm-4259 835c-9423,1981 -18887,4865 -28339,8958 2902,7019 4796,14340 4894,26234 8,1089 30,2249 64,3477 3901,-5771 7972,-11731 11993,-17533 3428,-4948 6826,-9785 10065,-14298 476,-2302 918,-4577 1323,-6838zm-30966 10130c-1644,752 -3288,1538 -4933,2366 -3220,1625 -5703,3390 -7952,4985 -1837,1304 -3534,2510 -5382,3496 862,1006 1894,2098 3141,3315 6539,6387 12136,13992 17291,22428l2695 -4014c-121,-2755 -192,-5269 -211,-7491 -95,-11324 -1890,-18365 -4649,-25085zm-6225 -197l2389 -1175c-2438,-53 -4460,-779 -6562,-1535 -2098,-752 -4305,-1549 -7132,-1561 -1973,-7 -3897,87 -5836,393 -1171,189 -2369,461 -3617,843 310,287 613,586 896,896 930,1009 1720,2154 2215,3269 276,620 514,1217 756,1818 673,1686 1387,3466 3027,5775 1928,-952 3655,-2180 5541,-3518 2321,-1648 4887,-3470 8323,-5205zm52880 -15371c6709,-764 13368,-1161 19964,-1300 3053,-2234 6054,-4449 8987,-6671 -3363,888 -6818,1814 -10307,2766 -6198,1690 -12510,3459 -18644,5205zm-67643 27643c-2612,961 -5677,1467 -9782,1255 -4497,-230 -8088,-1391 -11936,-2626 -7929,-2544 -17068,-5481 -38098,-813 9173,6232 13164,12200 17715,19011 3874,5802 8187,12250 16642,20024 2558,2351 5956,4804 9619,7095l0 7c4108,2570 8572,4959 12589,6796l0 -4 2211 1005c1648,745 3228,1459 4763,2185 1973,-3054 8908,-13682 17665,-26782 -5242,-8712 -10904,-16543 -17529,-23010 -1580,-1538 -2839,-2903 -3859,-4143zm7548 55825c6731,3507 12892,7903 20606,16947 707,824 1463,1697 2279,2612 -718,-6916 -1433,-14090 -2079,-21124 -552,-5998 -1058,-11894 -1481,-17431 -1112,-2064 -2234,-4097 -3376,-6085 -5941,7574 -11338,15870 -15949,25081zm18421 18815c-7343,-8610 -13243,-12843 -19684,-16222 -778,1632 -1531,3288 -2256,4977 -1429,3338 -2200,6271 -2892,8931 -566,2177 -1092,4196 -1870,6135 1304,215 2796,393 4531,521 9105,692 18286,2918 27659,6066l-514 -4815c-1863,-2026 -3534,-3908 -4974,-5593zm9702 6470c2495,2665 5254,5533 8187,8538 4252,1701 8549,3530 12900,5431 -6830,-11746 -12669,-23701 -18286,-35221l-941 -1932c-1036,7586 -1716,15315 -1860,23184zm13327 13762c2480,2498 5038,5049 7631,7623 4539,4498 9200,9052 13743,13459 -4010,-5424 -7680,-10991 -11097,-16626 -3462,-1527 -6887,-3024 -10277,-4456zm5605 9656c-4290,-4248 -8477,-8451 -12366,-12431 -2181,-869 -4351,-1700 -6505,-2490 321,9622 1512,19449 3904,29469 7412,-1633 14948,-2237 26676,-276 1070,178 2215,359 3425,537 -4986,-4823 -10130,-9854 -15134,-14809zm-17133 -17348l-1821 -1912 7 1247 1814 665zm64873 63149c-2653,-2460 -11921,-11134 -23309,-22046 -9482,3644 -18179,7873 -25701,13270 -1791,1285 -3360,2287 -4754,3077 491,2736 449,5843 -477,9853 -1005,4373 -2766,7714 -4652,11293 -3882,7359 -8353,15848 -7404,37377 7725,-7941 14286,-10836 21781,-14132 6384,-2808 13482,-5938 22610,-12923 2766,-2116 5771,-5030 8659,-8235 3261,-3614 6387,-7601 8893,-11233l1380 -2007c1020,-1489 1995,-2914 2974,-4294zm-25599 -24242l-3496 -3364c-2729,-359 -5220,-722 -7412,-1088 -11161,-1871 -18403,-1316 -25501,230 454,1747 945,3504 1474,5265 1047,3481 2348,6218 3527,8701 964,2033 1852,3916 2502,5904 1141,-673 2404,-1493 3817,-2510 7427,-5333 15893,-9525 25089,-13138zm31182 26510c1171,2143 1553,4252 1946,6448 397,2196 813,4501 2219,6962l-4 0c971,1693 2014,3303 3265,4845 753,926 1584,1830 2529,2714 91,-408 200,-816 325,-1213 412,-1312 1009,-2570 1727,-3564l0 -4c401,-556 809,-1073 1214,-1587 1114,-1418 2297,-2922 3477,-5485 -1788,-1194 -3719,-2075 -5825,-3038 -2604,-1191 -5469,-2510 -8662,-4600l-2211 -1478zm17794 6384c438,-1251 877,-2691 1308,-4377 2256,-8852 6043,-17507 10768,-26185l-4850 -329c-2313,1474 -4448,2793 -6361,3916 -9751,5741 -14940,10821 -19389,16577 1474,1047 2975,2079 4513,3088 3039,1988 5790,3251 8285,4396 2048,937 3949,1806 5726,2914zm14249 -34443l979 -1682 -2223 1474 1244 208zm4516 -7541c2412,-3885 4952,-7793 7578,-11750 -12744,4686 -25531,8352 -37844,11883l-2083 597c7287,2335 14778,4350 22504,5858 3061,-1996 6372,-4218 9845,-6588zm12212 -13500c-2101,3137 -4165,6247 -6157,9331 2861,-1988 5794,-4044 8754,-6138 5231,-3696 10533,-7502 15677,-11221 -6032,3001 -12140,5646 -18274,8028zm27289 -48863c3564,-6773 6848,-13803 9675,-21146 -1436,-3361 -3046,-7004 -4773,-10837 -3413,-3050 -6826,-6240 -10265,-9513 2400,13372 3794,26609 5136,39349l227 2147zm11123 -25047l420 -1179 -1482 -1244 1062 2423zm1402 -4105c2994,-9146 5227,-18784 6410,-29015 -7521,-998 -14816,-3020 -25168,-8882 -941,-533 -1950,-1093 -3023,-1671 3046,6270 6179,12779 9195,19174 2563,5431 5050,10787 7333,15832 1750,1561 3500,3085 5253,4562zm-70867 -70927c11116,-2056 17738,-5053 23880,-8939 -1025,-1485 -2083,-2963 -3183,-4433 -2184,-2929 -4339,-5050 -6289,-6981 -1599,-1580 -3080,-3043 -4373,-4687 -839,1021 -1742,2223 -2721,3659 -5156,7544 -11675,14385 -19083,20927l4433 1966c2691,-601 5155,-1111 7336,-1512zm-40112 9831c5794,-1580 11493,-3096 16856,-4472 1841,-1455 3648,-2918 5409,-4388 -8496,-4531 -17601,-8409 -27477,-11350 -2287,7242 -5534,14075 -13104,23241l-4 -4 -2181 2702c6705,-1912 13667,-3866 20501,-5729zm23497 -6138l2570 -628 -1092 -612 -1478 1240zm-87134 24601c3451,-1062 15587,-4744 30750,-9162 1584,-10038 2280,-19684 1361,-28899 -215,-2188 -302,-4044 -287,-5642 -2616,-945 -5288,-2533 -8296,-5341 -3285,-3058 -5292,-6251 -7446,-9672 -4433,-7045 -9547,-15171 -28679,-25111 3016,10666 2241,17794 1353,25924 -756,6943 -1599,14657 -118,26052 446,3451 1475,7510 2801,11615 1497,4630 3390,9335 5284,13323l-4 0 1032 2154c786,1641 1538,3213 2249,4759zm33797 -10046l4664 -1346c1674,-2181 3231,-4157 4645,-5870l0 -7c7204,-8723 10345,-15277 12552,-22194 -1735,-480 -3496,-930 -5280,-1349 -3523,-828 -6558,-1077 -9309,-1300 -2242,-182 -4320,-348 -6365,-779 15,1323 94,2820 264,4551 904,9093 303,18520 -1171,28294zm-30267 55525l960 1671 -166 -2631 -794 960zm4260 7658c2165,4044 4282,8209 6398,12472 2317,-13383 5534,-26290 8633,-38721l522 -2106c-5670,5144 -11162,10632 -16332,16570 197,3640 465,7605 779,11785zm5597 17352c-1670,-3402 -3333,-6747 -5012,-10024 291,3489 609,7068 942,10689 585,6388 1232,12900 1886,19231 412,-6739 1179,-13376 2184,-19896zm28664 48061c4082,6474 8527,12832 13475,18951 3628,438 7593,865 11781,1285 4350,-1425 8810,-2786 13360,-4128 -12778,-4607 -24934,-10019 -36639,-15227l-1977 -881zm16135 22160l813 952 1822 -658 -2635 -294zm2854 3269c6429,7170 13656,13928 21929,20066 4630,-6017 10020,-11320 20270,-17360 934,-548 1920,-1145 2959,-1788 -6924,-495 -14094,-1031 -21101,-1610 -6017,-499 -11928,-1024 -17473,-1576 -2230,733 -4426,1489 -6584,2268zm131461 -56879c-2880,2181 -13028,9797 -25765,19129 1943,9978 4596,19272 8610,27613 956,1988 1666,3704 2203,5216 2778,-8 5828,567 9612,2169 4157,1762 7132,4071 10322,6547 6576,5106 14162,10987 35520,13784 -6471,-8981 -8183,-15950 -10133,-23910 -1655,-6773 -3500,-14298 -8795,-24510 -1603,-3092 -3957,-6554 -6607,-9956 -2997,-3840 -6380,-7612 -9520,-10704l-1762 -1731c-1277,-1251 -2506,-2453 -3685,-3647zm3198 -5106c2313,-782 4460,-798 6690,-805 2233,-4 4584,-15 7234,-972l0 -7c1867,-665 3639,-1410 5344,-2359 1047,-582 2083,-1247 3118,-2025 -385,-163 -763,-341 -1138,-533l0 3c-1217,-631 -2354,-1443 -3208,-2324l-8 -8c-503,-517 -930,-990 -1342,-1451l0 -4c-1209,-1349 -2479,-2766 -4807,-4376 -1486,1553 -2688,3295 -3999,5197 -1622,2354 -3413,4947 -6047,7748l-1837 1916zm-39886 -56554c2732,2623 5442,5197 8137,7703 -1459,-3160 -2974,-6403 -4520,-9680 -2744,-5813 -5583,-11728 -8364,-17461 1916,6474 3462,12967 4747,19438zm-104785 -69057l2585 635c-1844,-1610 -2929,-3469 -4052,-5404 -1122,-1932 -2305,-3961 -4459,-5783l3 -4c-1496,-1258 -3020,-2419 -4720,-3435 -1021,-609 -2113,-1176 -3304,-1682 57,415 87,835 106,1251l0 3c57,1372 -72,2763 -401,3939l0 4c-196,699 -396,1292 -589,1886 -571,1723 -1168,3541 -1399,6361 2087,506 4196,676 6498,861 2849,235 5986,492 9732,1368zm-37444 180853c-446,-3579 -1966,-16176 -3678,-31881 -9608,-3303 -18981,-5646 -28214,-6349 -2196,-163 -4041,-405 -5621,-696 -1387,2415 -3409,4770 -6689,7242 -3595,2710 -7083,4139 -10829,5666 -7707,3144 -16592,6769 -29696,23860 11017,-1115 17908,892 25777,3182 6697,1947 14143,4120 25618,4642 3477,155 7653,-148 11928,-749 4842,-676 9800,-1727 14037,-2895l2400 -665c1712,-476 3353,-934 4967,-1357zm2831 5314c-477,2400 -1543,4264 -2654,6206 -1111,1935 -2271,3965 -2778,6736l4 0c-348,1954 -590,3862 -616,5816l0 8c-19,1187 42,2411 197,3700 332,-253 680,-495 1031,-718 1164,-741 2431,-1327 3617,-1618 617,-155 1278,-298 1943,-434 1765,-371 3632,-760 6184,-1966 -601,-2063 -1512,-3980 -2503,-6074 -1228,-2589 -2581,-5438 -3685,-9101l-740 -2555zm68916 -6255c-3628,1055 -7207,2109 -10719,3190 3493,321 7083,627 10719,930 6373,529 12862,1024 19174,1478 -6554,-1576 -12941,-3478 -19174,-5598zm-25705 -179072c3338,1402 15009,6387 29455,12748 7668,-6667 14389,-13614 19608,-21264 1240,-1818 2370,-3296 3409,-4513 -1402,-2407 -2430,-5336 -2929,-9415 -548,-4463 -38,-8201 510,-12208 1130,-8247 2431,-17752 -5816,-37644 -4540,10091 -9725,15054 -15640,20719 -5042,4831 -10651,10202 -16838,19877l0 4c-1864,2910 -3689,6682 -5311,10692 -1833,4532 -3413,9347 -4516,13603l-624 2412c-442,1723 -865,3378 -1308,4989zm-35051 62604c907,-3673 1776,-7305 2596,-10889 -2014,2854 -4067,5795 -6134,8777 -3651,5268 -7340,10658 -10900,15915 4641,-4887 9486,-9464 14438,-13803zm132281 126000c2268,888 3916,2264 5624,3685l4 0c1712,1429 3515,2933 6153,3905 1844,676 3677,1247 5620,1621 1168,223 2389,382 3678,450 -189,-371 -367,-749 -526,-1130 -533,-1278 -892,-2627 -975,-3848l0 -8c-41,-600 -64,-1288 -83,-1972 -53,-1807 -113,-3716 -858,-6445 -2139,238 -4184,794 -6414,1410l-4 0c-2770,760 -5820,1603 -9596,2049l-2623 283zm-30104 -189217l1568 2140c-366,-2408 -7,-4521 371,-6717 378,-2200 774,-4516 294,-7310 -332,-1950 -755,-3821 -1398,-5673 -389,-1126 -866,-2260 -1455,-3413 -227,356 -465,696 -718,1025l-4 0c-847,1100 -1841,2086 -2846,2766l-4 -3c-518,355 -1096,710 -1678,1073l4 4c-1535,952 -3149,1958 -5133,3964 1270,1728 2774,3217 4415,4838 2044,2022 4305,4252 6584,7306zm-146187 120368c-1908,1531 -3919,2276 -6009,3047 -2098,767 -4301,1583 -6475,3390l0 4c-1523,1262 -2933,2570 -4210,4044 -779,899 -1519,1882 -2230,2971 419,22 839,56 1255,109 1364,182 2706,552 3802,1085 684,329 1232,624 1776,915 1592,850 3277,1750 6010,2464 862,-1965 1395,-4014 1977,-6248 722,-2774 1523,-5824 3027,-9339l1077 -2442z"/>
  <g id="_2293085119392">
   <circle class="fil0" cx="199760" cy="299728" r="98606"/>
   <path class="fil0" d="M185819 104139c15402,19128 1111,31155 -5280,42584 -13671,24462 16014,55019 37115,26465 12352,-16714 4604,-51550 -31835,-69049zm28502 391087c-15402,-19132 -1111,-31158 5280,-42588 13671,-24461 -16014,-55019 -37112,-26464 -12355,16709 -4603,51553 31832,69052z"/>
   <path class="fil0" d="M4524 313932c19129,-15402 31155,-1112 42585,5280 24461,13670 55019,-16014 26464,-37116 -16713,-12351 -51549,-4603 -69049,31836zm391088 -28502c-19132,15402 -31159,1111 -42588,-5280 -24462,-13671 -55020,16014 -26465,37111 16710,12356 51553,4604 69053,-31831z"/>
   <path class="fil0" d="M37849 409797c8863,-22905 26423,-16544 39515,-16721 28022,-393 39644,-41379 4366,-45374 -20652,-2343 -46947,21789 -43881,62095zm324438 -220232c-8870,22908 -26430,16543 -39523,16724 -28021,393 -39640,41379 -4361,45374 20648,2340 46950,-21793 43884,-62098z"/>
   <path class="fil0" d="M114638 476155c-3776,-24269 14612,-27538 25864,-34243 24068,-14348 13640,-55655 -18909,-41474 -19057,8297 -29764,42343 -6955,75717zm170856 -352945c3776,24269 -14616,27538 -25864,34243 -24072,14348 -13640,55655 18910,41477 19052,-8300 29764,-42350 6954,-75720z"/>
   <path class="fil0" d="M310178 461898c-22904,-8863 -16539,-26423 -16720,-39515 -394,-28022 -41379,-39644 -45374,-4366 -2340,20652 21789,46946 62094,43881zm-220228 -324439c22904,8867 16543,26431 16721,39523 393,28022 41379,39641 45374,4362 2343,-20648 -21790,-46950 -62095,-43885z"/>
   <path class="fil0" d="M376533 385108c-24265,3776 -27535,-14615 -34240,-25863 -14347,-24068 -55654,-13641 -41473,18909 8296,19053 42343,29764 75713,6954zm-352945 -170859c24273,-3772 27542,14619 34247,25867 14347,24073 55654,13641 41473,-18909 -8296,-19053 -42346,-29764 -75720,-6958z"/>
  </g>
 </g>
</svg>
