<?xml version="1.0" encoding="UTF-8" standalone="no"?>
<!-- Creator: CorelDRAW X7 -->

<svg
   xmlns:dc="http://purl.org/dc/elements/1.1/"
   xmlns:cc="http://creativecommons.org/ns#"
   xmlns:rdf="http://www.w3.org/1999/02/22-rdf-syntax-ns#"
   xmlns:svg="http://www.w3.org/2000/svg"
   xmlns="http://www.w3.org/2000/svg"
   xmlns:sodipodi="http://sodipodi.sourceforge.net/DTD/sodipodi-0.dtd"
   xmlns:inkscape="http://www.inkscape.org/namespaces/inkscape"
   xml:space="preserve"
   width="40px"
   height="60px"
   version="1.1"
   style="shape-rendering:geometricPrecision; text-rendering:geometricPrecision; image-rendering:optimizeQuality; fill-rule:evenodd; clip-rule:evenodd"
   viewBox="0 0 400000 600008"
   id="svg47"
   sodipodi:docname="led.svg"
   inkscape:version="0.92.3 (2405546, 2018-03-11)"><metadata
   id="metadata51"><rdf:RDF><cc:Work
       rdf:about=""><dc:format>image/svg+xml</dc:format><dc:type
         rdf:resource="http://purl.org/dc/dcmitype/StillImage" /></cc:Work></rdf:RDF></metadata><sodipodi:namedview
   pagecolor="#ffffff"
   bordercolor="#666666"
   borderopacity="1"
   objecttolerance="10"
   gridtolerance="10"
   guidetolerance="10"
   inkscape:pageopacity="0"
   inkscape:pageshadow="2"
   inkscape:window-width="1858"
   inkscape:window-height="1057"
   id="namedview49"
   showgrid="false"
   inkscape:zoom="11.125147"
   inkscape:cx="17.036964"
   inkscape:cy="36.835893"
   inkscape:window-x="-8"
   inkscape:window-y="-8"
   inkscape:window-maximized="1"
   inkscape:current-layer="svg47" />
 <defs
   id="defs4">
  <style
   type="text/css"
   id="style2">
   <![CDATA[
    .fil1 {fill:none}
    .fil0 {fill:white}
    .fil2 {fill:white;fill-rule:nonzero}
   ]]>
  </style>
 
  
  
  
  
  
  
  
  
  
  
  
  
  
  
 </defs>
 <path
   style="fill:#ffffff;stroke-width:0.89632273"
   inkscape:connector-curvature="0"
   id="path26"
   d="m 199001.84,47346.265 c -72690.87,0 -131623.196,58929.625 -131623.196,131626.785 0,83659.17 57035.706,82944.79 57035.706,202687.23 0,23499.78 -1056.77,28883.11 65115.16,29493.5 -54505.39,-1175.97 -47566.96,-19862.5 -49535.28,-49403.52 -3804,-107976.4 -57123.537,-109182.85 -57123.537,-182997.72 0,-64139.96 51994.767,-116131.139 116131.147,-116131.139 64136.37,0 116131.15,51991.179 116131.15,116131.139 0,73814.87 -53445.03,75908.67 -57344.03,183214.63 -1964.76,30468.71 6236.6,48722.31 -60254.41,49236.81 81847.71,298.47 76054.78,-4308.62 76054.78,-29543.7 0,-118868.53 57035.7,-119028.06 57035.7,-202687.23 0,-72697.16 -58933.23,-131626.785 -131623.19,-131626.785 z"
   class="fil0" /><rect
   style="fill:#ffffff;stroke-width:0.89632273"
   id="rect28"
   ry="14625.298"
   rx="14625.298"
   height="29250.596"
   width="158460.89"
   y="397028.59"
   x="119774.98"
   class="fil0" /><rect
   style="fill:#ffffff;stroke-width:0.89632273"
   id="rect30"
   ry="8729.2861"
   rx="14625.298"
   height="17458.572"
   width="158460.89"
   y="434986.12"
   x="119774.98"
   class="fil0" /><path
   style="fill:#ffffff;stroke-width:0.89632273"
   inkscape:connector-curvature="0"
   id="path32"
   d="m 199441.94,540144.48 c -28629.46,0 -51876.48,-12636.35 -52255.62,-28307.67 h 104514.81 c -382.73,15671.32 -23626.17,28307.67 -52259.19,28307.67 z"
   class="fil0" /><rect
   style="fill:#ffffff;stroke-width:0.89632273"
   id="rect34"
   ry="8729.2861"
   rx="14625.298"
   height="17458.572"
   width="158460.89"
   y="460873.69"
   x="119774.98"
   class="fil0" /><rect
   style="fill:#ffffff;stroke-width:0.89632273"
   id="rect36"
   ry="8729.2861"
   rx="14625.298"
   height="17458.572"
   width="158460.89"
   y="486542.53"
   x="119774.98"
   class="fil0" /><path
   style="fill:none;stroke-width:0.89632273"
   inkscape:connector-curvature="0"
   id="path38"
   d="m 198896.97,84536.483 c -44972.1,-775.32 -90492.75,42902.487 -90492.75,88074.457"
   class="fil1" /><path
   style="fill:#ffffff;fill-rule:nonzero;stroke-width:0.89632273"
   inkscape:connector-curvature="0"
   id="path40"
   d="m 198815.41,95021.663 -1098.01,-9.86 v 43.91 c -19299.61,0 -38789.25,9451.727 -53624.29,23818.897 -14841.31,14384.17 -24858.61,33477.65 -25191.15,52733.34 l -9.86,1083.66 -20973.051,-165.83 13.448,-1165.21 v -81.56 c 426.64,-25088.97 12964.393,-49470.74 31526.353,-67452.77 18570.91,-17995.477 43356.03,-29832.299 68258.55,-29832.299 l 81.57,43.916 1182.24,10.762 z"
   class="fil2" /><circle
   style="fill:#ffffff;stroke-width:0.89632273"
   id="circle42"
   r="10486.079"
   cy="172609.16"
   cx="108405.13"
   class="fil0" /><circle
   style="fill:#ffffff;stroke-width:0.89632273"
   id="circle44"
   r="10486.079"
   cy="84535.617"
   cx="198897.88"
   class="fil0" />
</svg>