<?xml version="1.0" encoding="UTF-8"?>
<!DOCTYPE svg PUBLIC "-//W3C//DTD SVG 1.1//EN" "http://www.w3.org/Graphics/SVG/1.1/DTD/svg11.dtd">
<!-- Creator: CorelDRAW X7 -->
<svg xmlns="http://www.w3.org/2000/svg" xml:space="preserve" width="40px" height="60px" version="1.1" style="shape-rendering:geometricPrecision; text-rendering:geometricPrecision; image-rendering:optimizeQuality; fill-rule:evenodd; clip-rule:evenodd"
viewBox="0 0 400000 600008"
 xmlns:xlink="http://www.w3.org/1999/xlink">
 <defs>
  <style type="text/css">
   <![CDATA[
    .fil0 {fill:white}
    .fil1 {fill:white;fill-rule:nonzero}
   ]]>
  </style>
 </defs>
 <g id="Слой_x0020_1">
  <metadata id="CorelCorpID_0Corel-Layer"/>
  <g id="_2293239874432">
   <circle class="fil0" cx="-308955" cy="-63935" r="98606"/>
   <path class="fil0" d="M-322897 -259525c15402,19129 1112,31156 -5280,42585 -13670,24461 16014,55019 37116,26465 12351,-16714 4603,-51550 -31836,-69050zm28502 391088c-15402,-19132 -1111,-31159 5280,-42588 13671,-24461 -16014,-55019 -37111,-26465 -12356,16710 -4604,51554 31831,69053z"/>
   <path class="fil0" d="M-504192 -49732c19129,-15401 31155,-1111 42585,5280 24461,13671 55019,-16014 26465,-37115 -16714,-12352 -51550,-4604 -69050,31835zm391088 -28501c-19132,15401 -31159,1111 -42588,-5280 -24461,-13671 -55019,16014 -26465,37111 16710,12356 51554,4604 69053,-31831z"/>
   <path class="fil0" d="M-470867 46133c8863,-22904 26423,-16543 39515,-16720 28022,-393 39644,-41379 4366,-45374 -20652,-2343 -46946,21789 -43881,62094zm324439 -220232c-8871,22908 -26431,16544 -39523,16725 -28022,393 -39641,41379 -4362,45374 20648,2339 46950,-21793 43885,-62099z"/>
   <path class="fil0" d="M-394077 112491c-3776,-24268 14611,-27537 25863,-34242 24069,-14348 13641,-55655 -18909,-41474 -19057,8296 -29764,42343 -6954,75716zm170855 -352944c3776,24269 -14615,27538 -25863,34243 -24072,14347 -13641,55654 18909,41477 19053,-8300 29764,-42350 6954,-75720z"/>
   <path class="fil0" d="M-198537 98235c-22905,-8863 -16540,-26423 -16721,-39516 -393,-28021 -41379,-39643 -45374,-4365 -2340,20652 21789,46946 62095,43881zm-220229 -324439c22905,8867 16544,26431 16721,39523 393,28022 41379,39640 45374,4362 2343,-20648 -21789,-46950 -62095,-43885z"/>
   <path class="fil0" d="M-132183 21445c-24265,3776 -27534,-14615 -34239,-25863 -14348,-24069 -55654,-13641 -41474,18909 8297,19053 42343,29764 75713,6954zm-352944 -170859c24272,-3772 27541,14619 34246,25867 14348,24072 55655,13641 41474,-18909 -8297,-19053 -42347,-29764 -75720,-6958z"/>
  </g>
  <path class="fil0" d="M-394225 831737c-105854,0 -191670,-85815 -191670,-191670 0,-105854 85816,-191670 191670,-191670 105855,0 191670,85816 191670,191670 0,105855 -85815,191670 -191670,191670zm0 -15194c-97464,0 -176476,-79012 -176476,-176476 0,-97464 79012,-176476 176476,-176476 97464,0 176476,79012 176476,176476 0,97464 -79012,176476 -176476,176476zm0 -28229c-81873,0 -148246,-66374 -148246,-148247 0,-81873 66373,-148246 148246,-148246 81873,0 148246,66373 148246,148246 0,81873 -66373,148247 -148246,148247z"/>
  <path class="fil0" d="M-475471 -86685c-56863,0 -102963,46100 -102963,102964 0,56863 46100,102963 102963,102963 56864,0 102964,-46100 102964,-102963 0,-56864 -46100,-102964 -102964,-102964zm-423 -93608l18924 44077 12753 29704c-9997,-2536 -20467,-3889 -31254,-3889 -11130,0 -21921,1440 -32205,4134l12858 -29949 18924 -44077zm-106 392490l-18924 -44078 -12752 -29703c9997,2536 20466,3889 31253,3889 11131,0 21922,-1440 32206,-4135l-12858 29949 -18925 44078zm106 -392490l31677 73781c-9997,-2536 -20467,-3889 -31254,-3889 -11130,0 -21921,1440 -32205,4134l31782 -74026zm-106 392490l-31676 -73781c9997,2536 20466,3889 31253,3889 11131,0 21922,-1440 32206,-4135l-31783 74027zm196300 -196190l-73781 31676c2536,-9997 3889,-20466 3889,-31253 0,-11131 -1440,-21922 -4135,-32206l74027 31783zm-392490 -106l73781 -31677c-2536,9997 -3889,20466 -3889,31253 0,11131 1440,21922 4135,32206l-74027 -31782zm335048 -138677l-29772 74568c-5276,-8860 -11724,-17220 -19351,-24847 -7869,-7873 -16517,-14484 -25694,-19851l74817 -29870zm-277606 277455l29772 -74567c5276,8863 11720,17220 19347,24847 7873,7873 16521,14483 25698,19850l-74817 29870zm277534 76l-74567 -29772c8859,-5276 17220,-11724 24847,-19351 7873,-7870 14483,-16517 19850,-25694l29870 74817zm-277455 -277606l74568 29771c-8863,5277 -17220,11721 -24847,19348 -7873,7873 -14484,16521 -19851,25697l-29870 -74816z"/>
  <path class="fil0" d="M698726 -229348c-81102,0 -146848,65745 -146848,146851 0,93337 63633,92539 63633,226128 0,8584 -128,15002 2295,19775 -4487,2914 -7469,7971 -7469,13694l0 0c0,8976 7336,16316 16317,16316l144156 0c8977,0 16317,-7340 16317,-16316l0 0c0,-5330 -2585,-10084 -6565,-13063 2025,-4860 1379,-11474 1379,-20406 0,-132614 63633,-132791 63633,-226128 0,-81106 -65746,-146851 -146848,-146851zm-117 53190c6463,0 11702,-5239 11702,-11698 0,-6426 -5186,-11649 -11604,-11702l-98 0 -1221 -11 -94 -49c-27784,0 -55435,13202 -76155,33283 -20708,20062 -34693,47263 -35173,75255l0 91 -11 1088 -4 212 0 90c0,6460 5239,11702 11698,11702 6429,0 11649,-5189 11702,-11607l0 -95 11 -1115c64,-3647 442,-7290 1100,-10904 3224,-17662 13259,-34605 27009,-47928 14521,-14072 33048,-23914 51916,-26114 2634,-306 5272,-464 7907,-464l0 -46 1013 8 208 4 94 0zm78782 456285l-157318 0c-5355,0 -9736,-4381 -9736,-9736l0 -8c0,-5355 4381,-9736 9736,-9736l157318 0c5351,0 9736,4381 9736,9736l0 8c0,5355 -4385,9736 -9736,9736zm0 -28638l-157318 0c-5355,0 -9736,-4380 -9736,-9736l0 -8c0,-5355 4381,-9736 9736,-9736l157318 0c5351,0 9736,4381 9736,9736l0 8c0,5356 -4385,9736 -9736,9736zm-78170 68962c-31948,0 -57880,-14101 -58303,-31582l116603 0c-423,17481 -26358,31582 -58300,31582zm78170 -97842l-157318 0c-5355,0 -9736,-4380 -9736,-9736l0 -11c0,-5356 4381,-9736 9736,-9736l157318 0c5351,0 9736,4380 9736,9736l0 11c0,5356 -4385,9736 -9736,9736zm-138881 -61826c-5896,-9490 -4520,-22919 -5613,-39364 -4248,-120463 -63735,-121808 -63735,-204161 0,-71555 58009,-129564 129564,-129564 71555,0 129564,58009 129564,129564 0,82353 -59626,84688 -63977,204407 -1062,16475 541,29749 -5971,39118l-119832 0z"/>
  <path class="fil0" d="M43643 350223c10367,612 21018,1262 31786,1924 11025,680 22341,1413 33876,2120 12152,7794 24552,15787 37290,23902 12964,8259 26241,16793 39833,25463 2524,1701 6088,3666 9766,4018 0,0 0,0 0,0 9097,884 16630,-5186 16611,-13701 -38,-15818 -45,-31665 -75,-47528 -31,-15886 -42,-31821 -65,-47763 -22,-15866 -60,-31778 -83,-47724 -26,-15954 -60,-31972 -68,-47948 -4,-8576 -7627,-15096 -16740,-14279 0,0 0,0 0,0 -3662,306 -6776,1939 -9671,3813 52,-41 -13558,8448 -30150,18792 -8062,5023 -16797,10473 -25025,15614 -8220,5132 -15999,9993 -22125,13833 -11547,480 -22844,971 -33907,1402 -10844,420 -21441,930 -31839,1338 -5711,223 -10284,5409 -10258,11494 61,13973 159,27946 238,41847 80,13902 159,27829 235,41731 30,6070 4701,11319 10371,11652z"/>
  <path class="fil1" d="M276672 418728c28189,-31692 45318,-73449 45318,-119200 0,-47340 -18335,-90400 -48288,-122459 -9786,-9785 2963,-26362 17178,-12147 32293,35562 51973,82788 51973,134606 0,50234 -18497,96152 -49052,131313 -15753,15761 -29495,-1152 -17129,-12113zm44376 -275146c-14222,-14226 -28120,1127 -17129,12118 34077,38204 54797,88597 54797,143828 0,53651 -19548,102732 -51905,140517 -10417,10416 3617,27307 17102,12094 34738,-41231 55670,-94478 55670,-152611 0,-59714 -22092,-114268 -58535,-155946zm-61807 43719c-12741,-12741 -27837,1621 -17257,12204l306 302c25516,25516 41303,60776 41303,99721 0,37504 -14642,71592 -38518,96851 -10303,10303 4732,24609 17186,12152 26211,-28767 42195,-67024 42195,-109003 0,-43571 -17212,-83128 -45215,-112227z"/>
 </g>
</svg>
